<svg xmlns="http://www.w3.org/2000/svg" viewBox="0 0 1000 700">
  <title>Gray Code Identity Mechanism Visualization</title>
  
  <!-- Sophisticated Background -->
  <defs>
    <linearGradient id="backgroundGradient" x1="0%" y1="0%" x2="100%" y2="100%">
      <stop offset="0%" style="stop-color:#E6F3FF;stop-opacity:0.7"/>
      <stop offset="100%" style="stop-color:#F0F8FF;stop-opacity:0.9"/>
    </linearGradient>
    
    <pattern id="gridPattern" width="40" height="40" patternUnits="userSpaceOnUse">
      <path d="M 40 0 L 0 0 0 40" fill="none" stroke="#D1E8FF" stroke-width="0.5"/>
    </pattern>
  </defs>
  
  <rect width="1000" height="700" fill="url(#backgroundGradient)"/>
  <rect width="1000" height="700" fill="url(#gridPattern)" opacity="0.5"/>
  
  <!-- Title -->
  <text x="500" y="50" font-family="Arial" font-size="24" font-weight="bold" text-anchor="middle" fill="#2C3E50">
    Gray Code Identity Mechanism: Truth Table to K-Map Transformation
  </text>
  
  <!-- Truth Table Representation -->
  <g transform="translate(50,100)">
    <rect width="400" height="500" fill="#F0F8FF" stroke="#4682B4" rx="10"/>
    <text x="200" y="30" font-family="Arial" font-size="18" text-anchor="middle" font-weight="bold" fill="#2C3E50">
      Truth Table
    </text>
    
    <g font-family="Arial" font-size="12">
      <text x="50" y="70" fill="#34495E">X2</text>
      <text x="100" y="70" fill="#34495E">X1</text>
      <text x="150" y="70" fill="#34495E">X0</text>
      <text x="250" y="70" fill="#34495E">Output (Y)</text>
      
      <g fill="#2C3E50">
        <text x="50" y="100">0</text>
        <text x="100" y="100">0</text>
        <text x="150" y="100">0</text>
        <text x="250" y="100">1</text>
        
        <text x="50" y="130">0</text>
        <text x="100" y="130">0</text>
        <text x="150" y="130">1</text>
        <text x="250" y="130">0</text>
        
        <text x="50" y="160">0</text>
        <text x="100" y="160">1</text>
        <text x="150" y="160">1</text>
        <text x="250" y="160">1</text>
        
        <text x="50" y="190">0</text>
        <text x="100" y="190">1</text>
        <text x="150" y="190">0</text>
        <text x="250" y="190">0</text>
      </g>
    </g>
  </g>
  
  <!-- K-Map Representation -->
  <g transform="translate(550,100)">
    <rect width="400" height="500" fill="#F0F8FF" stroke="#4682B4" rx="10"/>
    <text x="200" y="30" font-family="Arial" font-size="18" text-anchor="middle" font-weight="bold" fill="#2C3E50">
      K-Map (Gray Code Projection)
    </text>
    
    <g font-family="Arial">
      <!-- Column Labels -->
      <text x="150" y="80" font-size="12" fill="#34495E">X1X0</text>
      <text x="100" y="120" font-size="12" fill="#34495E">00</text>
      <text x="200" y="120" font-size="12" fill="#34495E">01</text>
      <text x="300" y="120" font-size="12" fill="#34495E">11</text>
      <text x="400" y="120" font-size="12" fill="#34495E">10</text>
      
      <!-- Row Labels -->
      <text x="50" y="170" font-size="12" fill="#34495E">X2=0</text>
      <text x="50" y="270" font-size="12" fill="#34495E">X2=1</text>
      
      <!-- K-Map Cells -->
      <g stroke="#4682B4" stroke-width="1">
        <rect x="100" y="150" width="80" height="80" fill="#90EE90" fill-opacity="0.3"/>
        <rect x="200" y="150" width="80" height="80" fill="#87CEFA" fill-opacity="0.3"/>
        <rect x="300" y="150" width="80" height="80" fill="#DDA0DD" fill-opacity="0.3"/>
        <rect x="400" y="150" width="80" height="80" fill="#F0E68C" fill-opacity="0.3"/>
        
        <rect x="100" y="250" width="80" height="80" fill="#90EE90" fill-opacity="0.3"/>
        <rect x="200" y="250" width="80" height="80" fill="#87CEFA" fill-opacity="0.3"/>
        <rect x="300" y="250" width="80" height="80" fill="#DDA0DD" fill-opacity="0.3"/>
        <rect x="400" y="250" width="80" height="80" fill="#F0E68C" fill-opacity="0.3"/>
      </g>
      
      <!-- Minimal Bit Transition Visualization -->
      <g stroke="#FF6347" stroke-width="2" stroke-dasharray="5,5">
        <path d="M140 190 L220 190" marker-end="url(#arrowhead)"/>
        <path d="M220 190 L300 190" marker-end="url(#arrowhead)"/>
      </g>
    </g>
  </g>
  
  <!-- Transformation Arrows -->
  <defs>
    <marker id="arrowhead" markerWidth="10" markerHeight="7" refX="9" refY="3.5" orient="auto">
      <polygon points="0 0, 10 3.5, 0 7" fill="#FF6347"/>
    </marker>
  </defs>
</svg>
